<?xml version="1.0" encoding="UTF-8"?>
<svg id="Capa_1" data-name="Capa 1" xmlns="http://www.w3.org/2000/svg" viewBox="-40 -40 604.58 596.47">
  <defs>
    <style>
      .cls-1 {
        fill: #3a374a;
      }

      .cls-2 {
        fill: #ba1829;
      }

      .cls-3 {
        fill: #fad907;
      }

      .cls-4 {
        fill: #da96ad;
      }
    </style>
  </defs>
  <path class="cls-4" d="M307.71,43.06c.81,1.74.64,2.82.31,4.61-5.7,30.71-9.52,60.21-14.05,91.31-3.86,26.5-9.47,55.11-12.45,82.02-.26,2.39-.12,4.8-.11,7.19.29.39,2.37-1.58,2.91-1.95.85-.58,1.6,1.38,1.95-1.95h.97c1.43,0,2.5-.55,2.92-1.95,6.46-2.94,8.29-5.38,13.64-9.74,1.23-.36,5.13-1.44,5.69-2.14.46-.59.01-1.47.16-1.76,1.92-.93,1.97-1.58,2.7-1.92,2.19-1.03,2.43,1.74,3.15-1.98,3.67-1.68,3.91-2.74,5.85-3.9,16.06-9.58,31.69-22.03,46.77-31.18,1.74-1.06,3.82-2.07,4.87-3.9.29-.1.67.09.97,0,.9-.26,1.53-1.14,1.95-1.95,3.32-1.16,11.24-6.99,13.64-9.74.3-.34.69-.61.97-.97,2.19.37,3.3-1.08,4.87-1.95,2.56-1.41,4.61-3.98,7.79-3.9.23,0,4.71,1.05,3.88,2.42-6.41,8.5-10.28,18.88-16.97,26.88-11.48,17.83-22.18,34.14-33.36,52.33-2.55,4.15-7.72,10.38-9.53,14.88-.53,1.31-.71,2.45-.53,3.85,1.29.04,2.6-.02,3.9,0,.97.02,1.95-.03,2.92,0,1.1,1.26,2.88,1.68,4.47,1.86,7.08.81,14.95,1.15,21.84,2.03,9.46,1.21,19.76,2.69,29.58,4.04,6.81.94,33.46,4.33,37.65,6.68l-53.11,25.33-1.44-1.94-.13,2.78-64.69,29.35-.53,17.08c3.58,20.99,4.24,42.9,5.92,64.29.74,9.37,3.33,20.67,1.94,29.73-1.52.28-2.57-1.37-3.45-2.37-14.07-15.93-27.78-32.7-41.35-48.52-7.05-8.21-13.32-16.49-21.45-24.13-1.09-1.02-2.21-3.42-3.4-2.92-1.47,1.16-2.01,2.68-2.38,4.45-5.05,24.34-6.68,54.52-9.94,79.7-1.89,14.64-8.32,41.17-6.7,54.2-3.98.34-2.36.05-2.94-2.38-.7-2.96-1.31-5.85-1.92-8.84-.34-1.67.49-3.68-1.97-4.37-.17-2.24.2-4.58,0-6.82-.84-9.28-4.11-19.53-5.77-28.82-1.12-6.23-7.86-48.25-9.82-50.1-.86-7.85-2.08-13.49-3.65-21.19-1.34-6.56-.81-10.79-4.14-15.83-.49-.74.36-6.21,0-7.79-2.49-2.71-9.31,12.02-10.12,13.26-6.84,10.4-15.06,20.74-21.72,31.34-1.97,3.14-5.76,13.41-9.09,15.31-1.38.79-3.57.29-3.89.5-.11.07.76,1.48.66,2.26-.52,4.19-9.49,16.08-12.41,20.33-6.9,10.03-18.73,26.09-23.31,36.84l-.97-.97c.58-2.41-.25-5.79,1.86-8.31l-.88-.46c13.63-36.33,26.1-73.53,38.83-110.7.68-2,2.98-1.04,2.09-6.22-.22-1.29-.05-2.22-1.64-2.73-11.34-4.91-23.18-8.62-34.69-13.07-16.75-6.49-34.22-12.7-50.18-20.16l-19.7-5.93c-1.05-2.57-.6-2.76,3.43-2.96,2.82-.14,5.25,1.08,6.73,1.03.64-.02.08-1.8,1.95-2.05,4.07-.55,9.35.48,13.7.07,11.07-1.03,22.41-2.81,33.62-3.89,4.48-.43,12.54-1.95,16.08-1.95h14.61c1.28,0,5.15-2.49,7.3-1.97.83-1.55-.94-3.44-.96-3.87-.89-15.43-4.89-28.29-5.85-42.87-.27-4.12,1.34-9.68-1.95-12.67-1.27-7.38-2.72-14.78-3.9-22.41-1-6.48-1.92-13.01-2.92-19.49,2.06-1.6.98-5.51-.97-6.82-1.57-9.42-3.64-18.77-4.87-28.26.21-.76-.17-2.02,0-2.92,3.22-2.82,8.74,9.43,10.26,10.71,1.29,1.09,3.11.84,3.36,1.04.11.09-.81,1.6-.52,2.88,1.41,6.2,3.13,3.88,4.49,5.51,7.1,8.52,13.02,19.46,19.44,28.59.11,6.18,4.98,8.92,8.77,12.67.54.91,1.29,1.75,1.95,2.92,1.27,2.25,2.21,4.58,3.34,6.92,1.01,2.07.93,2.21,3.48,1.85,4.67,6.65,12.47,15.77,18.51,23.38.39.49,2.17,5.49,3.88,3.89.95-.88,3.27-9.18,4.01-10.92,3.81-8.98,8.14-18.18,11.6-28.05,1.53-4.35,5.28-12.9,5.85-16.56,4.24-3.99,4.94-10.42,6.82-15.59.1-.27-.09-.66,0-.97l.97-1.95c.81-2.16,2.93-3.23,2.92-7.79,4.69-3.83,5.09-12.06,7.31-17.53,12.65-31.16,27.58-60.74,38.48-92.57.51-1.49.55-3.91.97-4.87.74-1.68,2.95-3.72,4.87-3.9Z"/>
  <g>
    <path class="cls-2" d="M399.3,107.37c-1.06-2.9,4.79-3.14,3.9,0-1.28-.05-2.61-.05-3.9,0Z"/>
    <path class="cls-2" d="M325.25,149.26c-.3,1.72-.58,3.64-1.95,4.87.27-2.58-1.21-5.59,1.95-4.87Z"/>
    <path class="cls-2" d="M301.87,13.83c1.05-.16,3.06.45,3.75-.14.91-.78,3.52-9.64,6.45-9.64,4.02,2.33,26.89,7.8,28.56,10.02.45.61.13,1.19.21,1.71.05.31-.03.65,0,.97-3.01,1.13-1.81,5.1-1.95,7.79-.93,17.75-4.93,35.14-7.55,52.37-4.08,26.87-7.81,53.8-12.01,80.55-.62,3.97-2.96,7.67-1.87,12.26.97.03,1.95,0,2.92,0,5.67-.04,5.87-3.86,8.27-3.91,1.42,1.36-1.04,4.69,2.44,3.9-.21-2.66-.25-8.93,2.23-10.44.99-.6,2.73-.23,4.18-1.17,1.36-.88,1.75-2.98,2.69-3.65,5.08-3.65,12.82-8.06,17.2-12.55,1.92-1.97-.44-4.53,5.86-3.35.25.17-3.17,5.76.97,4.86-1.33-3.99,1.22-4.34,1.85-5.65.45-.95.16-2.34,1-3.66,2.6-4.06,10.91-5.59,12.74-11.14,5.83-.6,2.47-.53,5.33-2.91,3.18-2.65,6.1-6.09,10.26-3.91-1.09-4.13,1.98-5.41,2.93-8.77.32-.02.65.01.97,0,1.28-.05,2.61-.05,3.9,0,.65.02,1.3-.04,1.95,0-.15,2.8,1.5,2.4,3.26,3.08,10.35,3.96,19.77,8.67,29.61,12.31,1.3.48,3.83-.01,4.16.2.09.06-.03,1.39,0,1.95.01.3.05.68,0,.97-3.71.04-3.06,4.38-4.45,6.75-3.55,6.07-3.01,4.42-5.29,10.78-.1.29.11.69,0,.97-.16.42-1.45,1.49-1.95,2.92-.1.29.11.7,0,.97l-5.84,4.4c-.51,1.74.88,1.4,1.94,2.42-8.64,18.42-17.9,38.82-27.9,56.38-3.28,5.77-12.82,17.27-14.53,22.5-.43,1.31-.59,2.57-.44,3.93l4.87-.97c5.83,4.3,15.5.51,21.74,1.97,7.21,1.69,18.14,3.28,26.5,3.87,8.47.6,18.48-1.37,26.51,1.75,2.05.79,3.93,3.05,4.17,3.13-2.86,12.28-6.57,24.51-9.52,36.76-.45,1.87.21,4.94-.38,5.96-.33.56-4.69,1.66-5.88,2.2-10.39,4.71-23.88,9.54-33.72,13.43-21.42,8.48-42.55,16.46-64.02,25.43l.54,103.82c-2.52,5.42-3.85,11.83-7.84,15.06-1.43,1.16-1.07,2.03-.97,3.9-.26.39-.76.65-.97.97-.65.98-1.11.29-1.95,2.92-.09.3.1.69,0,.97-3.91.13.31,5.03-6.82,1.95-3.44-7.1-11.27-13.46-15.15-20.44l-6.29-5.87c-4.93-9.36-15.21-18.18-20.5-26.05-1.32-1.96-2.43-7.18-3.01-7.93-.09-.11-1.55.89-2.81-.51-1.71-1.91-1.75-5.27-1.95-5.47-.16-.16-1.6,1.22-3.88-.97-1-.96-1.12-4.53-3.89-3.89l-14.07,116c-14.35,2.33-28.88,4.89-43.42,4.81-2.01-12.74-.53-28.06-.97-41.45-.06-1.88.99-3.91-1.95-3.37,0-1.62,0-3.25,0-4.87,0-2.76-.03-6.12-.04-9.22-.02-4.37,1.02-31.38.04-32.69-.11-.15-1.5.06-1.95,0,0-1.62,0-3.52,0-4.87,0-.65,0-1.3,0-1.95.01-3,1.18-8.77,0-10.72-2.48-4.08-4.91,1-7.22,3.98-16.41,21.17-31.83,45.04-47.63,65.87-3.91,5.15-11.09,15.81-15.3,19.79-.18.17-1.78.12-2.96,1.39-1.95,2.09-.92,5.47-4.83,4.46-.21-.34-5.49-2.7-7.03-3.96-5.35-4.36-10.99-8.65-15.9-12.56-2.82-2.25-10.59-8.33-12.15-10.76-4.66-7.25-.5-8.23,1.71-14.36,2.31-6.39,3.94-13.89,6.15-19.97.96-2.62,3.17-1.21,3.83-8.54.2-2.25-.45-5.35-.07-7.26.21-1.02,2.15-.2,2.75-.72.6-.52,5.3-12.48,6.21-14.6,2.63-6.16,4.4-15.25,7.23-21.23.93-1.97,4.29-3.29,5.08-5.63,2.5-7.4,4.69-16.94,7.05-24.62.04-.14,2.22-.8,1.92-2.33-.4-1.99-14.29-7.83-17.29-9.11-9.87-4.21-21.65-8.14-32.25-12.56-16.86-7.03-33.31-15.33-50.79-20.82-.36-9.54,5.27-17.49,7.54-26.07.44-1.68.02-5.75.3-6.04,1.35-1.42,14.93-.55,15.55-1.02.15-.11-.07-1.5,0-1.95,19.2-.8,50.93-2.47,69.22-6.29,1.33-.28,6.52-1.08,5.8-3.46.32,0,.65.02.97,0,.64-.04,1.3.06,1.95,0,1.84-8.89-2.35-16.05-3.84-23.93-2.77-14.69-4.21-28.94-7.07-43.6l-4.68-10.43c-.03-.65.03-1.3,0-1.95-.53-11.29-2.78-23.13-5.14-34.32-.97-4.62-7.48-19.91-3.24-23.26,2.11-1.66,5.83-.46,6.44-.88.16-.11-.1-1.37,0-1.95,5.55-.88,14.26-7.27,18.48-5.38.66.3,8.51,9.22,9.78,10.73,3.56,4.24,6.97,10.42,10.7,14.63,4.12,4.65,7.19,5.73,9.83,10.39,2.55,4.49,11.26,13.52,15.51,16.4.15,1.05-.42,3.18.14,3.75.43.43,2.48-.01,3.28,1.08.64.88.31,2.71,1.02,3.87,1.54,2.5,8.49,9.21,11.15,10.78,1.04,3.15.74,6.78,5.29,5.84,2.87-.59,4.62-4.5,5.64-7.09,2.11-5.39,4.12-12.6,4.66-18.23,1.29-.07,2.61.06,3.89,0-2.34-4.6,2.06-10.28,5.03-14,.81-1.02,2.55-1.59,2.64-1.76.43-.77-1.38-3.54-.7-5.94.8-2.82,3.72-2.48,4.72-9.47.09-.62-.09-1.32,0-1.95,2.17.1,5.46-6.48,6.07-8.06.89-2.32.34-4.21.75-5.58.89-.21,2.23.65,2.95-.64.74-1.33,1.24-4.43,2.2-6.39,1.98-4.03,2.61-3.59,3.62-8.56,2.88-1.41,2.58-1.54,4.42-4.83,3.34-5.97,9.89-18.32,11.16-24.4.3-.15,1.27.31,1.79-.13.7-.58,6.03-14.5,7.08-16.62,2.97-6.02,5.67-6.41,6.72-14.43.39-.19,1.1.52,2.03-.6,1.33-1.62,1.66-5.8,2.65-7.87,2.04-4.25,9.4-14.02,10.38-16.9.98-2.9.22-5.11.53-7.75ZM288.23,200.9c2.92.57,1.74-1.41,2.09-3.22,2.59-13.4,4.49-25.4,5.81-38.08,1.85-17.77,5.43-37.04,8.9-54.43,1.13-5.68,1.8-6.22,4.55-10.09,1.51-2.12-1.01-12.22-.87-16.45.11-3.25,1.77-14.58,2.95-17.33.36-.85,3.31-.74,1.84-2.61-.15-.18-2.98.52-1.88-3.33.43-1.49.63,1.1,1.17-4,.32-3.02,2.34-19.18-4.13-15.65-1.35.74-1.78,3.26-2.92,3.93-2.88,1.68-6.29-.9-2.89,7.31-.42.96-.47,3.38-.97,4.87-2.14.04-2.69,1.04-3.66,2.67-1.74,2.92-4.99,11.87-6.61,15.8-1.42,3.44-3.23,11.99-5.62,15.34-5.64,7.9-6.25,13.84-10.21,22.42-.93,2.01-4.98,5.46-5.06,5.84-.55,2.56.53,6.16.04,8.52-.22,1.09-2.44.17-2.86.61-.39.4-.05,3.38-.56,4.85-.79,2.3-3.15,3.3-3.84,4.8-2.22,4.82-4.02,15.01-5.47,20.76-.34,1.37-3.29.09-2.99,6.11.06,1.24,1.03,2.25,1.03,2.38,0,4.56-2.11,5.63-2.92,7.79-.13.36-.62.69-.97,1.95-.09.31.1.7,0,.97-3.17-.48-2.32,4.39-3.25,6.52-2.04,4.68-2.76,3.85-3.57,9.07-.57,3.66-4.32,12.21-5.85,16.56-2.35-.51-3.07,2.96-3.74,4.53-3.79,8.9-8.18,17.86-11.85,26.64-4.56-.08-3.56-3.36-3.99-3.76-.66-.61-2.98.32-3.69-.24-.24-.19-.47-2.98-1.19-4.18-1.06-1.77-2.93-2.05-3.82-3.28-2.04-2.82-4.1-6.38-3.89-9.97l-.97,1.94c-3.11.75-1.31-1.54-2.12-2.67-.67-.94-3.17-.7-3.59-1.36-.55-.85.31-3.16-.62-4.73-.5-.84-2.44-1.28-3.37-2.59-.77-1.09-.15-2.96-.53-3.33-.94-.93-2.88-.62-3.26-1.08-.52-.62.14-2.31-.2-2.97-.52-1.01-1.92-.8-1.98-1.36-.12-1.09,1.26-3.08,1.06-3.29-.15-.15-2.42-.01-4-1.37-2.25-1.94-3.09-6.88-5.22-9.39-1.92-2.27-4.8-2.66-5.18-3.1-1-1.15-.97-12.8-3.17-14.39-.79-.57-3.3,1.09-4.31.88-1.41-.3-1.27-2.61-1.51-2.83.35.23,2.1-.14,2.92,0-.18-1.22.31-5.52,0-5.85-2.47-2.6-5.37,4.22-2.92,5.84-.8-.74-3.26-1.26-4.34-3.94-1.24-3.08,1.03-5.65-3.46-4.83,1.95-3.5.48-3.07-2.91-3.9,7.35-11.16-8.64-1.76-4.88-11.67-9.69-1.83-10.4,5.42-9.74,13.2.25,2.97-.52,2.51,2.92,2.38-.15,9.94,2.43,14.18,3.85,22.94,1.27,7.86,2.73,16.47,3.95,23.82,1.57,9.49,3.02,19.39,4.6,29.01,2.54,15.49,2.6,30.09,6.68,44.98.29,1.06.83,2.95.29,3.83l-97.26,10.89c-1.37,4.83,1.15,10.27,5.85,12.09,3.23,1.25,6.19-.06,9.01.57,1.04.23,10.51,6.1,12.16,6.7,1.13.41,6.05,1.5,7.04.09,1.58.56,3.71.53,4.87.97-.51,2.27,1.69,2.49,3.21,3.08,4.96,1.94,10.54,4.52,15.27,6.21,1.47.53,4.44.21,4.82.58.39.37-.2,2.34.13,2.68.49.49,4.36-.21,6.08.31,1.4.42,2.01,2.33,4.09,2.72,5.53,1.03,3.54-.25,8.53,2.23,6.88,3.42,14.8,5.66,22.11,8.06,5.02,2.69-1.58,12.65-2.61,15.8-1.87,5.7-3.33,14.01-5.7,19.64-.87,2.07-3.64,4.04-4.11,5.64-.46,1.55.18,4.4-.34,5.02-.33.4-3.37.16-4.31,2.07-.54,1.09,1.02,9.36-.44,11.69-.95.86-9.34-3.56-5.31,2.95.62,1.01,3.54.45,2.39,4.2-.19.63-1.38.44-1.88,1.42-.36.7.33,2.47-.18,3.05-.42.47-2.64-.45-2.86.62-.63,3.13.76,8.18.05,11.45-.08.39-2.01,1.23-2.81,3.17-.92,2.24-1.14,6.49-1.95,7.67-.74,1.08-2.81.36-3.02.57-.38.37,1.05,4.57.95,6.21-.26,4.23-4.3,8.72-4.34,13.3-1.17,1.93-3.98-.5-4.4-.03-.74.84-.22,21.54.42,22.46,1.18,1.68,4.49,1.1,5.98.01,1.72-1.26,2.18-4.59,3.36-6.16,2.26-3.01,9.83-15.29,10.99-16.1.58-.41,2.06.02,2.42-.38.35-.37,2.38-7.32,4.05-9.17,1.29-1.43,3.54-1.18,3.83-1.51.69-.82-.42-3.64.25-4.63.39-.57,2.82-.42,3.56-1.31,1.07-1.3,1.28-6.58,4.08-9.08,1.39-1.25,3.53-1.28,3.77-1.57.47-.55.06-3.28.61-4.74,1.83-4.91,5.44-9.93,8.32-13.86,1.39-1.89,3.82-2.35,2.93-6.57.38-.5.62-1.34.97-1.95,1.44-1.81,4.43-3.8,5.31-5.93.5-1.2.36-2.43.53-2.84.2-.45-.2-1.48,0-1.95,5.5.07,7.73-8.59,10.1-12.33,2.21-3.49,7.76-6.75,6.46-12.03.44-.49,1.45-1.49,1.95-1.95.13-.12,1.08.17,1.64-.29,1.24-1.02,1.51-4.19,4.2-3.6,1.29,2.44-.19,4.83.18,7.04,1.06,6.27,3.91,19.45,5.65,25.46.37,1.27,1.76.43,1.97.62,2.44,22.28,6.97,43.08,11.41,65.08.8,3.97.77,7.6,1.2,11.43.24,2.15,1.51,1.63,2.99,2.41.2,2.24-.17,4.58,0,6.82.21,2.67-.36,5.61.06,8.23.33,2.03,5.06,14.83,6.29,15.19,3.09.91,2.25-1.89,2.42-1.98.5-.28,2.68.62,2.98-.51.58-2.15-.94-5.18-.78-7.52.3-4.45,1.77-16.39,2.69-20.54.17-.79,1.77-.25,2.01-2.06.51-3.92-.91-9.95-.06-13.52,5.97-24.92,7.85-53.99,13.63-79.29.74-3.24-2.8-10.95,1.46-14.91-.3,5.43,1.69,4.17,3.4,6.3,5.4,6.73,10.75,13.25,16.1,18.98,7.24,7.75,16.98,18.06,21.84,25.92,3.58,5.78,11.13,12.04,15.09,17.08,1,1.27,3.18,6.26,3.64,6.55.2.13,2.73-.45,4.72.19,1.02.33,1.23.59,1.95.97.59.32,2.51,2.35,2.91,1.95.9-4.05,1.24-8.05,1.02-12.22-1.07-20.67-4.45-41.71-5.89-62.35-.13-1.86,1.08-3.92-1.94-3.38-.13-4.93-1.02-9.37-.97-14.61,0-.13.98-1.1,1.01-2.36.15-5.98-.33-12,.11-17.96l20.04-9.58,2.22-3.22c.63-.05,1.31-.01,1.95,0,.99.02,3.63,1.82,6.29,1.04,1.07-.31-.08-2.3,1.18-3.02,5.81-3.31,13.96-4.91,19.54-7.55,3.65-1.73,6.13-7.2,10.99-4.1-.86-4.37,1.99-2.33,4.63-3.66,15.58-7.85,32.55-15.11,47.75-21.44.82-.34,7.06-5.15,7.04-5.6-3.97-1.07-4.61-4.51-7.28-6.34-3.94-2.69-14.01-1.14-19.56-1.86-1.86-.24-1.29-1.95-2.03-2.07-1.69-.27-3.53,1-5.46.79-13.3-1.43-27.6-5.03-40.67-5.62-.65-.03-1.3.04-1.95,0-3.68-2.97-9.16-1.84-13.64-1.95-2.92-.07-5.85.05-8.77,0-2.65-5.85,6.62-12.8,8.27-16.58.7-1.6.18-4.14.66-4.7.27-.31,2.11-.22,3.2-1.14,2.4-2.04,2.37-6.09,3.52-8,1.23-2.04,4.23-6,5.79-8.09.67-.9,2.44-1.18,2.7-1.63.93-1.57-.45-5.73.34-6.55.29-.3,1.91.36,2.87-.69,2.72-3,7.07-12.44,10.35-16.68,2.7-3.49,5.06-5.14,7.63-9.05.77-1.17,2.34.13,2.4.03.18-.32-.11-9.09,1.96-6.2.26.36.27,3.48,1.94,1.33.49-.63-.34-7.1.01-8.76l2.91.98c1.1-2.89.45-6.61.91-9.2.2-1.11,2.38.06,3.04-1.16.78-1.44.73-4.93,1.9-7.18.14-.27-.16-.84,0-.97.21-.18,1.39.15,1.95,0,.27-1.52.06-1.44-.97-1.95-.19-.09-.63.02-.97,0-.32-4.55-2.64-1.93-2.92-1.95-.91-.06-4.41-.95-4.68-.75-.41.31-.61,1.77-1.76,2.56-3.09,2.13-9.87,8.18-11.1,8.91-.41.24-2.63-.38-3.93.47-1.06.69-.72,2.17-.94,2.46-.29.36-.68.63-.97.97-4.67-1.19-5.59,1.21-8.42,2.81-5.25,2.97-2.54,1.95-5.24,4.45-1.89,1.74-9.32,3.7-10.71,4.94-1.08.96-.7,2.91-1.11,3.26-.72.61-2.98-.32-3.66.27-.34.29.32,1.91-.71,2.86-1.82,1.69-8.74,3.96-11.53,5.82-2.64,1.76-5.45,5.73-6.37,6.29-2.09,1.29-7.08-.05-7.8.49-.19.14,1.82,2.07-.43,3.92-.78.64-9.94,6.79-10.53,7.03-1.88.77-5.39.55-5.6.74-.27.24.16,2.92,0,3.89-9.6-.07-3.88,2.24-9.57,5.53-2.26,1.3-3.39,1.51-6.02,1.29-.83-8.71-7.05-3.61-2.95-.43.8.62,2.02.35,2.95.43.61,6.39-2.2,3.14-6.1,4.93-1.13.52-1.34,4.44-5.2-1.43-2.22-3.38-2.24-5.51-2.34-9.35,0-.32,0-.65,0-.97ZM379.81,128.81h-1.94v2.91h1.94v-2.91ZM235.61,163.87h-2.92s.01,2.93.01,2.93h2.92s-.01-2.93-.01-2.93ZM272.89,367.49c0-.66-.54-1.2-1.2-1.2s-1.2.54-1.2,1.2.54,1.2,1.2,1.2,1.2-.54,1.2-1.2Z"/>
    <path class="cls-2" d="M467.5,247.67c1.43.47,6.68-1.26,5.83,1.44-.51,1.65-2.6,3.63-3.43,6.32-2.54,8.25-3.47,19.22-5.56,27.57-.97,3.89-4.28,7.56-2.74,11.37-4.44,2.06-8.44,4.99-12.93,7.06-9.74,4.5-18.78,5.67-28.17,8.85-21.26,7.2-42.37,18.37-63.92,25.22.02,25.75-.57,51.59-.2,77.35.11,7.99,2.26,18.01.96,26.21-.49,3.06-7.23,17.53-9,22.18-2.23,5.85-5.29,13.91-10.43,4.67,5.1-.49,3.43-2.69,4.87-6.82.1-.29-.09-.68,0-.97,2.61.46,1.99-.62,1.95-2.92.22-.32.72-.58.97-.97.94-1.43,1.36-2.03.97-3.9,3.98-3.23,5.32-9.64,7.84-15.06l-.54-103.82c21.47-8.97,42.61-16.95,64.02-25.43,9.84-3.9,23.33-8.72,33.72-13.43,1.19-.54,5.55-1.65,5.88-2.2.59-1.01-.07-4.08.38-5.96,2.96-12.25,6.66-24.48,9.52-36.76Z"/>
    <path class="cls-2" d="M216.13,401.61c-.16,1.74-1.11,5.51-1.95,6.82-.27.43-2.11,1.25-2.9,2.43-10.32,15.29-21.82,30.37-32.56,44.88-11.81,15.95-23.89,31.79-35.69,47.76-1.26.6-4.67-1.6-6.04-2.56-9.58-6.73-19.57-16.19-28.81-23.27-2.67-2.05-8.57-4.85-8.97-7.85h3.9c1.56,2.43,9.34,8.52,12.15,10.76,4.91,3.91,10.55,8.2,15.9,12.56,1.54,1.25,6.82,3.61,7.03,3.96.29.47-.31,2.59,0,2.93,1.5,1.62,7.96-6.47,7.79-8.78,4.21-3.98,11.39-14.63,15.3-19.79,15.8-20.83,31.22-44.7,47.63-65.87,2.31-2.99,4.75-8.06,7.22-3.98Z"/>
    <path class="cls-2" d="M344.74,15.78c1.67,8.56-.63,6.18-1.55,11.62-2.81,16.67-3.99,33.27-7,49.49-4.4,23.65-6.71,48.27-10.94,72.37-3.16-.72-1.68,2.29-1.95,4.87-.07.63.1,1.34,0,1.95-.73,4.49-2.14,9.12-2.92,13.64-.97,0-1.95.03-2.92,0-1.09-4.59,1.25-8.29,1.87-12.26,4.2-26.75,7.93-53.68,12.01-80.55,2.62-17.23,6.62-34.62,7.55-52.37,2.94,1.13,2.17-5.13,1.95-7.79-.03-.32.05-.66,0-.97h3.9Z"/>
    <path class="cls-2" d="M282.38,393.82c-2.09.62-1.79,2.13-1.95,3.9-2.72,30.99-7.45,62.35-11.62,93.13-.84,6.24-.61,13.31-2.15,19.76l-44.13,5.86c-1.89-.49-1.23-3.38-1.53-3.78-.07-.63.1-1.33,0-1.95,14.54.08,29.07-2.48,43.42-4.81l14.07-116c2.77-.64,2.89,2.93,3.89,3.89Z"/>
    <path class="cls-2" d="M444.12,124.9c2.56,4.4,1.48,3.93-.63,8.63-12.37,27.58-30.22,54.21-42.37,82.13l-12.54,21.29-4.87.97c-.15-1.36.02-2.63.44-3.93,1.71-5.24,11.24-16.73,14.53-22.5,9.99-17.56,19.26-37.96,27.9-56.38.92-1.95,2.69-3.78,3.9-6.82.11-.28-.1-.68,0-.97,1.4-.42,1.95-1.49,1.95-2.92.11-.29-.1-.69,0-.97,2.7.61,1.77-1.49,2.44-2.86,1.87-3.82,6.67-11.06,7.3-14.67.05-.29.01-.67,0-.97h1.95Z"/>
    <path class="cls-2" d="M44.64,308.08c17.48,5.49,33.94,13.79,50.79,20.82,10.6,4.42,22.38,8.35,32.25,12.56,3,1.28,16.89,7.12,17.29,9.11.3,1.53-1.87,2.18-1.92,2.33-9-3-17.3-7.98-26.08-11.43-10.32-4.05-33.67-14.03-43.1-15.85.56-2.31-2.5-2.56-4.05-3.23-3.64-1.57-23.41-9.14-24.55-10.32-1.18-1.23-.57-2.56-.63-3.99Z"/>
    <path class="cls-2" d="M398.33,107.37c-.95,3.36-4.02,4.64-2.93,8.77-4.16-2.19-7.08,1.26-10.26,3.91-2.86,2.38.5,2.32-5.33,2.91-1.83,5.55-10.14,7.09-12.74,11.14-.85,1.32-.55,2.71-1,3.66-.63,1.32-3.18,1.67-1.85,5.65-4.14.9-.72-4.69-.97-4.86-6.3-1.18-3.94,1.38-5.86,3.35-4.38,4.49-12.12,8.91-17.2,12.55-.94.68-1.34,2.78-2.69,3.65-1.45.94-3.19.56-4.18,1.17-2.48,1.51-2.44,7.78-2.23,10.44-3.48.79-1.03-2.54-2.44-3.9-2.4.05-2.6,3.87-8.27,3.91.78-4.52,2.19-9.15,2.92-13.64,4.7,1.47-.97,5.96,0,6.82,1.98,1.73,7.91-6.89,10.03-8.48,6.08-4.58,13.04-9.22,19.69-14.93,4.34-3.72,6.24-4.34,10.89-7.11,2.34-1.4,8.11-7.91,10.27-9.18,1.28-.75,3.96-.06,5.63-.23,2.83-8.57,4.3-7.77,11.26-12.64,3.58-2.5-.82-2.47,7.25-2.94Z"/>
    <path class="cls-2" d="M128.44,122.96c.39-2.56,4.09-3.76,6.94-5.24,8.47-4.42,11.07-6.85,17.46,1.83.76,1.03.8,3.07,1.06,3.28.6.49,4.91-.67,7.4,3.34,1.52,2.44.76,1.95,3.18,5.04,2.99,3.82,5.66,8.06,8.73,11.78,3.83,4.63,3.69,6.11,6.88,10.37,2.47,3.29,6.83,7.63,9.75,10.98.82.94,2.4,1.27,2.69,1.72.67,1.02.06,2.56.21,3.67,6.03,4.09,5.27,4.73,9.19,9.79,3.98,5.13,4,2.46,6.39,9.7,6.01,3.55,6.72,3.9,9.45-3.7l4.26-15.74c.61-.23,1.26-.01,1.88-.05.72-7.47.61-8.25,4.14-14.85,2.31-4.32,5.5-10.47,8-14.44,1.1-1.75.48-2.41,3.45-1.88-1,6.99-3.92,6.65-4.72,9.47-.68,2.4,1.13,5.17.7,5.94-.09.16-1.82.74-2.64,1.76-2.97,3.72-7.38,9.4-5.03,14-1.29.07-2.6-.07-3.89,0-.54,5.63-2.56,12.84-4.66,18.23-1.01,2.6-2.77,6.5-5.64,7.09-4.55.94-4.25-2.69-5.29-5.84-2.65-1.57-9.61-8.28-11.15-10.78-.71-1.16-.39-3-1.02-3.87-.8-1.1-2.85-.65-3.28-1.08-.56-.57,0-2.71-.14-3.75-4.25-2.88-12.96-11.91-15.51-16.4-2.65-4.66-5.72-5.74-9.83-10.39-3.73-4.21-7.14-10.39-10.7-14.63-1.27-1.51-9.12-10.43-9.78-10.73-4.22-1.89-12.93,4.49-18.48,5.38-.09.58.16,1.84,0,1.95-.6.42-4.33-.78-6.44.88-4.24,3.35,2.26,18.65,3.24,23.26,2.36,11.19,4.61,23.03,5.14,34.32-3.08.54-1.75-1.55-1.93-3.39-.84-8.62-3.96-19.2-5.83-26.53-1.31-5.1-3.67-16.24-3.98-21.2-.71-11.43,2.41-8.11,9.79-9.29Z"/>
    <path class="cls-2" d="M143.05,263.26c.72,2.37-4.48,3.18-5.8,3.46-18.29,3.82-50.02,5.48-69.22,6.29-.06.45.16,1.83,0,1.95-.62.47-14.2-.41-15.55,1.02-.28.29.14,4.36-.3,6.04-2.27,8.59-7.9,16.54-7.54,26.07.05,1.43-.55,2.76.63,3.99,1.14,1.18,20.91,8.75,24.55,10.32,1.55.67,4.62.92,4.05,3.23-9.05-1.75-17.05-8.34-22.13-9.71-2.06-.55-3.87.38-6.51-1.11-5.19-2.93-4.98-14.6-3.46-19.65.24-.79,1.6-.64,1.83-1.44,1.76-6.01,3.19-12.29,4.87-18.34,2.43-3.96,14.72-2.17,19.55-2.37.06-.45-.16-1.83,0-1.95.46-.34,9.01.17,11.13-.08,6.33-.76,12.76-1.04,18.66-1.79,1.86-.24.93-1.87,2.79-2.1,3.88-.49,8.92.64,12.8.15,1.86-.24.93-1.87,2.79-2.1,3.95-.5,9.92.9,13.52.06.79-.18.26-1.77,2.07-2,3.22-.42,7.76.16,11.27.08Z"/>
    <path class="cls-2" d="M301.87,13.83c.66-5.63,3.93-7.91,5.8-13.2,1.06-.72,6.82-.72,8.39-.52,1.72.23,1.32,1.69,2.15,1.94,6.93,2.06,22.82,5.28,26.62,11.29,1.01,1.61-.14,2.16-.09,2.44h-3.9c-.08-.52.24-1.1-.21-1.71-1.66-2.22-24.54-7.68-28.56-10.02-2.93,0-5.54,8.85-6.45,9.64-.69.59-2.69-.02-3.75.14-.31,2.65.45,4.85-.53,7.75-.98,2.88-8.34,12.66-10.38,16.9-1,2.07-1.33,6.25-2.65,7.87-.92,1.13-1.64.41-2.03.6-1.05,8.02-3.75,8.41-6.72,14.43-1.05,2.13-6.39,16.04-7.08,16.62-.52.43-1.49-.02-1.79.13-1.28,6.08-7.83,18.43-11.16,24.4-1.84,3.3-1.55,3.42-4.42,4.83-1,4.97-1.64,4.53-3.62,8.56-.96,1.95-1.46,5.06-2.2,6.39-.72,1.29-2.07.44-2.95.64-.41,1.38.13,3.27-.75,5.58-.6,1.58-3.9,8.15-6.07,8.06.23-1.65-.22-2.81.53-4.81.94-2.49,4.45-5.07,4.67-8.55.47-.46,1.17-.18,1.62-.28,1.6-5.36,4.18-13.33,8.77-15.59,1.59-7.86,3.86-9.36,7.42-15.94,1.71-3.17,3.58-9.95,6.15-12.66,1.02-1.08,1.65-.44,2.02-.63,1.54-7.3,1.38-5.47,4.43-11.65,1.32-2.67,8.56-18.7,9.4-19.37.57-.46,1.48,0,1.77-.15,1.07-8.19,3.67-15.07,7.56-22.14,1.77-3.23,5.33-6.16,6.15-10.23.41-.91,1.15-.65,1.88-.76Z"/>
    <path class="cls-2" d="M130.38,185.31l4.68,10.43c2.86,14.66,4.3,28.91,7.07,43.6,1.49,7.88,5.68,15.04,3.84,23.93-.64.05-1.3-.05-1.95,0-.16-3.35.31-6.79-.1-10.13-1.26-10.06-5.74-22.51-7.65-32.3-2.18-11.15-5.41-24.52-5.89-35.52Z"/>
    <path class="cls-2" d="M114.79,426.95c-.66,7.33-2.87,5.92-3.83,8.54-2.21,6.08-3.84,13.58-6.15,19.97-2.21,6.13-6.37,7.11-1.71,14.36h-3.9c-.27-2.03-.42-10.37-.01-11.97.22-.88,2.3-1.16,3.18-2.87,4.16-8.02,4.8-22.04,12.42-28.03Z"/>
    <path class="cls-2" d="M314.53,434.74l6.29,5.87c3.88,6.98,11.71,13.34,15.15,20.44.63,1.29.77,3.4.97,4.87-.8-.09-2.33.33-2.8-.11-.74-.71-.57-5.65-1.32-6.5-.4-.45-2.19-.25-3.13-1.21-3.33-3.43-11.31-14.36-13.21-18.49-.67-1.45-1.24-3.52-1.95-4.87Z"/>
    <path class="cls-2" d="M218.07,465.92c2.94-.54,1.89,1.49,1.95,3.37.45,13.39-1.04,28.71.97,41.45.1.61-.07,1.32,0,1.95-.21-.28-2.43.37-2.94-2.41,0-14.79.06-29.59.02-44.36Z"/>
    <path class="cls-2" d="M405.15,107.37c5.53.33,3.8.73,6.62,1.86,8.43,3.36,22.38,7.51,29.69,11.82,1.09.64.61,1.81.72,1.92.14.14,1.34-.21,1.69.25.51.68.13,1.48.26,1.7h-1.95c-.03-.56.09-1.89,0-1.95-.32-.21-2.86.28-4.16-.2-9.84-3.64-19.26-8.35-29.61-12.31-1.76-.67-3.41-.27-3.26-3.08Z"/>
    <path class="cls-2" d="M282.38,393.82c2.28,2.19,3.72.81,3.88.97.21.21.24,3.57,1.95,5.47,1.26,1.4,2.72.39,2.81.51.58.75,1.69,5.97,3.01,7.93,5.29,7.87,15.57,16.68,20.5,26.05.71,1.35,1.28,3.43,1.95,4.87-2.19.08-2.6-1.33-3.72-2.61-5.6-6.45-9-12.68-13.15-19.05-2.68-4.11-11.56-16.8-15.05-19.15-1.55-1.05-1.83-1.61-4.13-1.08.15-1.77-.14-3.27,1.95-3.9Z"/>
    <path class="cls-2" d="M216.13,419.15c.44.06,1.84-.15,1.95,0,.98,1.31-.06,28.32-.04,32.69.01,3.1.04,6.45.04,9.22-3.34-13.01-2-28.27-1.95-41.9-.68-.09-1.98.43-1.96-.5-.1-1.72.49-3.42,1.96-4.37,0,1.35,0,3.25,0,4.87Z"/>
    <path class="cls-2" d="M342.79,459.1c-1.44,4.13.23,6.33-4.87,6.82-.3.03-.67.03-.97,0-.21-1.47-.35-3.58-.97-4.87,7.13,3.08,2.92-1.82,6.82-1.95Z"/>
    <path class="cls-2" d="M216.13,412.33l-1.95-3.9c.83-1.31,1.79-5.08,1.95-6.82,1.18,1.94.01,7.72,0,10.72Z"/>
    <path class="cls-2" d="M177.15,336.33c.89,5.18-1.41,4.22-2.09,6.22-12.72,37.17-25.2,74.37-38.83,110.7-1.61,4.3-4.5,8.6-3.9,13.64.17,1.43.35,2.58,1.95,2.92,2,.43,1.55-.25,2.22-1.23,15.82-23.16,30.75-46.94,46.47-70.19.62-.92,1.91-.59,1.98-.68.9,4.23-1.54,4.68-2.93,6.57-2.88,3.93-6.49,8.95-8.32,13.86-.55,1.47-.14,4.19-.61,4.74-.24.28-2.38.32-3.77,1.57-2.8,2.51-3.01,7.78-4.08,9.08-.74.9-3.17.74-3.56,1.31-.67,1,.44,3.81-.25,4.63-.28.34-2.54.08-3.83,1.51-1.66,1.85-3.7,8.8-4.05,9.17-.37.39-1.84-.03-2.42.38-1.15.81-8.73,13.09-10.99,16.1-1.18,1.57-1.64,4.91-3.36,6.16-1.49,1.09-4.81,1.67-5.98-.01-.64-.92-1.16-21.62-.42-22.46.42-.48,3.22,1.96,4.4.03.04-4.58,4.08-9.07,4.34-13.3.1-1.64-1.32-5.84-.95-6.21.21-.21,2.28.51,3.02-.57.81-1.18,1.02-5.43,1.95-7.67.8-1.93,2.72-2.78,2.81-3.17.7-3.27-.69-8.33-.05-11.45.22-1.07,2.45-.15,2.86-.62.51-.57-.18-2.35.18-3.05.51-.98,1.69-.79,1.88-1.42,1.15-3.75-1.76-3.19-2.39-4.2-4.03-6.51,4.35-2.09,5.31-2.95,1.47-2.32-.09-10.6.44-11.69.94-1.91,3.98-1.67,4.31-2.07.52-.63-.12-3.47.34-5.02.47-1.6,3.24-3.57,4.11-5.64,2.37-5.63,3.83-13.93,5.7-19.64,1.03-3.15,7.63-13.11,2.61-15.8-7.31-2.4-15.23-4.64-22.11-8.06-4.99-2.48-2.99-1.2-8.53-2.23-2.08-.39-2.7-2.3-4.09-2.72-1.73-.52-5.6.19-6.08-.31-.33-.34.25-2.31-.13-2.68-.39-.37-3.35-.05-4.82-.58-4.73-1.69-10.31-4.27-15.27-6.21-1.52-.6-3.72-.81-3.21-3.08,23.31,8.91,47.04,16.88,70.15,26.31Z"/>
    <path class="cls-2" d="M447.04,262.28c.91.51,1.97,1.77,2.9,2.44-1.14,1.19-2.57,2.02-3.99,2.81-8.5,4.71-17.6,7.94-26.19,11.8-21,9.43-42.08,18.77-62.35,29.72-.64-.01-1.31-.05-1.95,0-4.44.34-6.63,3.07-9.03,4.17-2.56,1.17-15.08,6.28-15.83,7.51-1.42,2.33.9,17.68,1.47,21.45-.04,5.24.84,9.69.97,14.61.59,22.38,3.74,42.91,4.91,64.75.18,3.27.61,8.37-1.01,11.24-.72-.39-.92-.64-1.95-.97.09-.94-.14-2.01,0-2.92,1.39-9.06-1.2-20.36-1.94-29.73-1.68-21.39-2.34-43.3-5.92-64.29l.53-17.08,64.69-29.35.13-2.78,1.44,1.94,53.11-25.33Z"/>
    <path class="cls-2" d="M155.72,200.9c1.18,7.63,2.63,15.03,3.9,22.41.68,3.96.27,9.27,1.95,12.67.96,14.58,4.95,27.44,5.85,42.87-8.01,6.23-20.74,4.31-30.57,4.99-1.17.08-7.35.25-6.46,2.8-11.22,1.08-22.55,2.86-33.62,3.89-4.35.4-9.63-.62-13.7-.07-1.87.25-1.31,2.03-1.95,2.05-1.48.05-3.91-1.17-6.73-1.03-4.03.2-4.48.39-3.43,2.96.14.33-.34,1.23.18,1.73,9.13,3.21,18.26,6.57,27.3,10.04.77.29,1.34,2,3.7,2.84-.99,1.41-5.91.33-7.04-.09-1.65-.6-11.12-6.47-12.16-6.7-2.82-.63-5.78.68-9.01-.57-4.7-1.81-7.22-7.26-5.85-12.09l97.26-10.89c.54-.88,0-2.76-.29-3.83-4.07-14.89-4.13-29.49-6.68-44.98-1.58-9.62-3.04-19.52-4.6-29.01h1.95Z"/>
    <path class="cls-2" d="M136.23,463c4.58-10.76,16.41-26.81,23.31-36.84,2.92-4.25,11.89-16.14,12.41-20.33.1-.78-.77-2.19-.66-2.26.32-.22,2.51.28,3.89-.5,3.33-1.9,7.12-12.17,9.09-15.31,6.66-10.6,14.89-20.94,21.72-31.34.82-1.24,7.63-15.97,10.12-13.26.36,1.58-.48,7.05,0,7.79-3.18.35-5.12,4.9-5.85,7.79-.5.46-1.51,1.46-1.95,1.95-3.47,3.86-14.73,19.95-16.56,24.36-.2.47.2,1.5,0,1.95-3.57,0-4.48,6.41-5.85,8.77-.35.61-.59,1.45-.97,1.95-.06.08-1.36-.24-1.98.68-15.72,23.25-30.65,47.03-46.47,70.19-.67.98-.22,1.67-2.22,1.23,1-1.86,1.28-5.26,1.95-6.82Z"/>
    <path class="cls-2" d="M302.84,46.96c-3.4-8.21.01-5.63,2.89-7.31,1.14-.67,1.57-3.19,2.92-3.93,6.46-3.53,4.45,12.63,4.13,15.65-.55,5.1-.75,2.51-1.17,4-1.1,3.86,1.74,3.15,1.88,3.33,1.47,1.87-1.48,1.76-1.84,2.61-1.18,2.75-2.84,14.07-2.95,17.33-.14,4.23,2.38,14.33.87,16.45-2.75,3.86-3.42,4.4-4.55,10.09-3.47,17.4-7.05,36.66-8.9,54.43-1.32,12.68-3.22,24.69-5.81,38.08-.35,1.81.83,3.79-2.09,3.22,5.32-47.48,14.57-94.47,20.35-141.88.26-2.12,1.58-15.34,1.08-15.97-.64.03-1.31-.05-1.94,0-1.92.18-4.13,2.22-4.87,3.9Z"/>
    <path class="cls-2" d="M307.71,43.06c.64-.06,1.3.02,1.94,0,.49.63-.82,13.85-1.08,15.97-5.78,47.41-15.03,94.4-20.35,141.88,0,.32,0,.65,0,.97-2.13,5.16-1.77,11.15-1.95,16.56l-1.95,7.79c-.54.36-2.63,2.34-2.91,1.95,0-2.39-.16-4.8.11-7.19,2.97-26.91,8.59-55.53,12.45-82.02,4.53-31.1,8.35-60.6,14.05-91.31.33-1.78.5-2.87-.31-4.61Z"/>
    <path class="cls-2" d="M379.81,249.62c13.07.59,27.37,4.19,40.67,5.62,1.93.21,3.76-1.06,5.46-.79.74.12.17,1.83,2.03,2.07,5.55.73,15.62-.83,19.56,1.86,2.68,1.83,3.31,5.27,7.28,6.34.01.45-6.23,5.26-7.04,5.6-15.2,6.32-32.17,13.58-47.75,21.44-2.64,1.33-5.49-.71-4.63,3.66-4.86-3.1-7.34,2.37-10.99,4.1-5.58,2.64-13.73,4.24-19.54,7.55-1.26.72-.1,2.71-1.18,3.02-2.66.78-5.3-1.02-6.29-1.04,20.28-10.95,41.36-20.29,62.35-29.72,8.6-3.86,17.69-7.09,26.19-11.8,1.42-.79,2.85-1.62,3.99-2.81-.94-.67-2-1.92-2.9-2.44-4.19-2.36-30.84-5.75-37.65-6.68-9.81-1.35-20.12-2.82-29.58-4.04v-1.95Z"/>
    <path class="cls-2" d="M415.86,141.47c.34.02.79-.09.97,0l-.97,1.95c-.16.14.14.7,0,.97l-65.28,103.28c-1.3-.03-2.6.04-3.9,0-.17-1.4,0-2.54.53-3.85,1.81-4.5,6.98-10.73,9.53-14.88,11.18-18.19,21.88-34.5,33.36-52.33,6.69-7.99,10.56-18.38,16.97-26.88.83-1.37-3.65-2.41-3.88-2.42,1.13-6.48,5.08.59,8.12-1.88,1.21-.98.35-3.11,2.6-3.96.33-.13,1.41-.03,1.95,0Z"/>
    <path class="cls-2" d="M301.87,51.83c-10.9,31.83-25.83,61.41-38.48,92.57-2.22,5.47-2.62,13.71-7.31,17.53,0-.13-.97-1.14-1.03-2.38-.3-6.03,2.65-4.75,2.99-6.11,1.45-5.75,3.25-15.93,5.47-20.76.69-1.49,3.04-2.5,3.84-4.8.51-1.46.17-4.45.56-4.85.42-.44,2.64.48,2.86-.61.48-2.36-.59-5.96-.04-8.52.08-.38,4.13-3.83,5.06-5.84,3.96-8.58,4.57-14.52,10.21-22.42,2.39-3.35,4.2-11.89,5.62-15.34,1.62-3.93,4.87-12.89,6.61-15.8.97-1.63,1.52-2.64,3.66-2.67Z"/>
    <path class="cls-2" d="M145.97,154.13c-3.44.12-2.67.59-2.92-2.38-.66-7.77.05-15.03,9.74-13.2-3.76,9.91,12.23.52,4.88,11.67,3.4.83,4.86.41,2.91,3.9,4.49-.82,2.22,1.75,3.46,4.83,1.08,2.68,3.55,3.2,4.34,3.94-2.45-1.62.45-8.44,2.92-5.84.31.33-.18,4.62,0,5.85-.82-.15-2.57.23-2.92,0,.24.23.1,2.53,1.51,2.83,1.01.21,3.52-1.45,4.31-.88,2.2,1.59,2.17,13.24,3.17,14.39.38.44,3.26.83,5.18,3.1,2.13,2.52,2.97,7.46,5.22,9.39,1.58,1.36,3.85,1.22,4,1.37.2.21-1.17,2.19-1.06,3.29.06.56,1.45.36,1.98,1.36.34.65-.32,2.34.2,2.97.38.46,2.32.15,3.26,1.08.38.38-.24,2.25.53,3.33.92,1.31,2.87,1.75,3.37,2.59.93,1.56.07,3.87.62,4.73.42.66,2.92.42,3.59,1.36.81,1.12-.99,3.41,2.12,2.67l.97-1.94c-.22,3.6,1.84,7.16,3.89,9.97.89,1.23,2.77,1.51,3.82,3.28.72,1.2.94,3.99,1.19,4.18.7.55,3.03-.37,3.69.24.43.4-.57,3.68,3.99,3.76-.81,1.93,1.32,6.2-3.9,3.9-6.04-7.62-13.85-16.74-18.51-23.38-1.72-2.45-2.54-7.17-6.82-8.77-.66-1.17-1.41-2.01-1.95-2.92-3.28-5.54-5.37-7.82-8.77-12.67-6.41-9.13-12.34-20.07-19.44-28.59-1.36-1.63-3.08.7-4.49-5.51-.29-1.28.63-2.78.52-2.88-.24-.2-2.06.06-3.36-1.04-1.52-1.28-7.04-13.52-10.26-10.71-.18.9.21,2.16,0,2.92-.92,3.34-.92,4.26-.97,7.79Z"/>
    <path class="cls-2" d="M268.74,353.87c8.13,7.65,14.41,15.92,21.45,24.13,13.58,15.82,27.28,32.59,41.35,48.52.88,1,1.93,2.65,3.45,2.37-.14.91.09,1.98,0,2.92-1.99-.64-4.52-.06-4.72-.19-.45-.29-2.64-5.28-3.64-6.55-3.96-5.04-11.51-11.3-15.09-17.08-4.87-7.86-14.61-18.17-21.84-25.92-5.35-5.73-10.7-12.25-16.1-18.98-1.71-2.12-3.69-.87-3.4-6.3-4.26,3.96-.72,11.67-1.46,14.91-5.78,25.3-7.65,54.37-13.63,79.29-.86,3.57.57,9.6.06,13.52-.24,1.81-1.83,1.27-2.01,2.06-.92,4.15-2.39,16.09-2.69,20.54-.16,2.34,1.37,5.37.78,7.52-.3,1.13-2.48.23-2.98.51-.16.09.67,2.89-2.42,1.98-1.23-.36-5.96-13.17-6.29-15.19-.42-2.62.15-5.56-.06-8.23,2.46.69,1.63,2.7,1.97,4.37.6,2.99,1.21,5.88,1.92,8.84.57,2.42-1.04,2.72,2.94,2.38.25,2-.79,5.05,1.95,5.85,2.33-19.58,4.39-39.26,6.94-58.83,3.11-23.91,5.49-50.57,9.76-74.03.61-3.34.43-6.62,3.76-8.42Z"/>
    <path class="cls-2" d="M389.56,154.13c-2.4,2.76-10.32,8.58-13.64,9.74-1.26.44-2.38-1.1-1.95,1.95-.3.09-.69-.1-.97,0-1.82.61-4.67.45-4.87,3.9-15.08,9.15-30.71,21.6-46.77,31.18-1.3,0-2.6,0-3.9,0-.45,2.66-1.43,1.19-1.95,3.9-1.23.56-5.01,1.28-5.69,2.14-.46.59-.01,1.47-.16,1.76-3.73,1.8-2.86,1.46-5.85,3.9-5.35,4.36-7.18,6.8-13.64,9.74-1.1.5-2.22.86-2.92,1.95h-.97c.19-1.85-.06-3.94,0-5.85.18-5.42-.18-11.4,1.95-16.56.1,3.84.12,5.96,2.34,9.35,3.86,5.87,4.07,1.94,5.2,1.43,3.9-1.79,6.71,1.46,6.1-4.93-.93-.08-2.16.19-2.95-.43-4.1-3.18,2.12-8.29,2.95.43,2.63.22,3.76.01,6.02-1.29,5.69-3.29-.03-5.6,9.57-5.53.16-.97-.26-3.65,0-3.89.21-.19,3.72.03,5.6-.74.59-.24,9.75-6.39,10.53-7.03,2.24-1.85.24-3.77.43-3.92.72-.54,5.71.79,7.8-.49.92-.57,3.73-4.54,6.37-6.29,2.79-1.86,9.71-4.13,11.53-5.82,1.02-.95.37-2.57.71-2.86.68-.59,2.94.35,3.66-.27.4-.35.03-2.3,1.11-3.26,1.39-1.24,8.83-3.2,10.71-4.94,2.7-2.5,0-1.48,5.24-4.45,2.83-1.6,3.75-4,8.42-2.81Z"/>
    <path class="cls-2" d="M70.95,294.44l19.7,5.93c15.95,7.46,33.43,13.68,50.18,20.16,11.51,4.46,23.35,8.16,34.69,13.07,1.59.51,1.42,1.44,1.64,2.73-23.11-9.43-46.85-17.4-70.15-26.31-1.16-.44-3.29-.42-4.87-.97-2.37-.84-2.94-2.55-3.7-2.84-9.04-3.47-18.17-6.83-27.3-10.04-.52-.5-.04-1.4-.18-1.73Z"/>
    <path class="cls-2" d="M333.04,356.79c3.02-.54,1.81,1.52,1.94,3.38,1.44,20.64,4.82,41.68,5.89,62.35.22,4.17-.12,8.17-1.02,12.22-.4.4-2.32-1.63-2.91-1.95,1.63-2.88,1.19-7.97,1.01-11.24-1.18-21.85-4.32-42.37-4.91-64.75Z"/>
    <path class="cls-2" d="M415.86,144.39c-1.17,2.24-1.12,5.74-1.9,7.18-.66,1.23-2.84.05-3.04,1.16-.46,2.59.19,6.31-.91,9.2l-2.91-.98c-.36,1.66.47,8.14-.01,8.76-1.66,2.15-1.68-.97-1.94-1.33-2.07-2.89-1.78,5.88-1.96,6.2-.06.1-1.63-1.2-2.4-.03-2.57,3.91-4.93,5.56-7.63,9.05-3.28,4.24-7.63,13.68-10.35,16.68-.95,1.05-2.58.39-2.87.69-.79.82.59,4.98-.34,6.55-.26.44-2.03.73-2.7,1.63-1.57,2.09-4.57,6.05-5.79,8.09-1.15,1.92-1.12,5.96-3.52,8-1.09.92-2.92.83-3.2,1.14-.48.56.04,3.1-.66,4.7-1.65,3.78-10.93,10.73-8.27,16.58-.65-.01-1.3.02-1.95,0-.97-.03-1.95.02-2.92,0l65.28-103.28Z"/>
    <path class="cls-2" d="M151.82,174.59c.37,2.22.63,4.57.97,6.82,1,6.48,1.92,13,2.92,19.49h-1.95c-1.21-7.36-2.68-15.96-3.95-23.82-1.42-8.77-4-13-3.85-22.94.05-3.53.05-4.46.97-7.79,1.23,9.48,3.3,18.83,4.87,28.26Z"/>
    <path class="cls-2" d="M239.51,466.89c-1.48-.78-2.75-.26-2.99-2.41-.43-3.84-.4-7.46-1.2-11.43-4.43-22-8.97-42.8-11.41-65.08,1.96,1.85,8.7,43.88,9.82,50.1,1.66,9.29,4.94,19.53,5.77,28.82Z"/>
    <path class="cls-2" d="M216.13,350.95c3.33,5.05,2.8,9.27,4.14,15.83,1.58,7.7,2.8,13.34,3.65,21.19-.21-.2-1.6.65-1.97-.62-1.74-6.01-4.59-19.19-5.65-25.46-.37-2.21,1.11-4.59-.18-7.04-2.69-.58-2.96,2.58-4.2,3.6-.55.46-1.51.17-1.64.29.72-2.89,2.67-7.45,5.85-7.79Z"/>
    <path class="cls-2" d="M355.45,309.05l-2.22,3.22-20.04,9.58c-.44,5.96.04,11.98-.11,17.96-.03,1.26-1.01,2.23-1.01,2.36-.57-3.77-2.89-19.11-1.47-21.45.75-1.23,13.26-6.34,15.83-7.51,2.4-1.1,4.59-3.82,9.03-4.17Z"/>
    <path class="cls-2" d="M239.51,204.8c-3.46,9.87-7.79,19.07-11.6,28.05-.74,1.74-3.06,10.04-4.01,10.92-1.71,1.6-3.49-3.4-3.88-3.89,5.22,2.3,3.09-1.96,3.9-3.9,3.67-8.79,8.05-17.74,11.85-26.64.67-1.58,1.39-5.04,3.74-4.53Z"/>
    <path class="cls-2" d="M412.94,139.52l.97,1.95c-2.25.85-1.39,2.98-2.6,3.96-3.04,2.47-6.99-4.6-8.12,1.88-3.18-.08-5.24,2.49-7.79,3.9v-.97c1.23-.73,8.01-6.78,11.1-8.91,1.15-.79,1.35-2.25,1.76-2.56.27-.2,3.76.69,4.68.75Z"/>
    <path class="cls-2" d="M208.33,360.69c1.3,5.28-4.25,8.54-6.46,12.03-2.37,3.74-4.6,12.39-10.1,12.33,1.83-4.41,13.09-20.5,16.56-24.36Z"/>
    <path class="cls-2" d="M355.45,247.67c2.92.05,5.85-.07,8.77,0,3.25,1.14,8.39,2.35,11.76,2.52,1.44.07,1.78-.58,1.88-.57.65.04,1.3-.03,1.95,0v1.95c-6.89-.88-14.75-1.22-21.84-2.03-1.6-.18-3.37-.6-4.47-1.86.65.02,1.3-.01,1.95,0Z"/>
    <path class="cls-2" d="M442.17,125.88c-.62,3.62-5.43,10.86-7.3,14.67-.67,1.37.25,3.47-2.44,2.86,2.29-6.37,1.74-4.72,5.29-10.78,1.39-2.37.74-6.71,4.45-6.75Z"/>
    <path class="cls-2" d="M145.97,491.25c.17,2.3-6.28,10.4-7.79,8.78-.32-.34.28-2.46,0-2.93,3.91,1.01,2.89-2.37,4.83-4.46,1.18-1.27,2.78-1.22,2.96-1.39Z"/>
    <path class="cls-2" d="M377.86,249.62c-.1,0-.44.65-1.88.57-3.37-.17-8.5-1.38-11.76-2.52,4.48.11,9.96-1.02,13.64,1.95Z"/>
    <path class="cls-2" d="M252.18,172.65c-1.88,5.17-2.58,11.6-6.82,15.59.81-5.22,1.53-4.39,3.57-9.07.93-2.13.08-7,3.25-6.52Z"/>
    <path class="cls-2" d="M191.77,387c-.18.4-.04,1.64-.53,2.84-.88,2.13-3.87,4.12-5.31,5.93,1.36-2.36,2.28-8.78,5.85-8.77Z"/>
    <path class="cls-2" d="M340.84,16.75c.22,2.67.99,8.93-1.95,7.79.14-2.7-1.06-6.67,1.95-7.79Z"/>
    <path class="cls-2" d="M426.58,155.11c-1.06-1.02-2.45-.69-1.94-2.42l5.84-4.4c-1.21,3.04-2.98,4.87-3.9,6.82Z"/>
    <path class="cls-2" d="M395.4,150.24v.97c-1.57.87-2.68,2.32-4.87,1.95.23-.29-.12-1.76.94-2.46,1.3-.85,3.52-.22,3.93-.47Z"/>
    <rect class="cls-2" x="232.69" y="163.88" width="2.92" height="2.92" transform="translate(-.59 .84) rotate(-.2)"/>
    <path class="cls-2" d="M415.86,141.47c-.54-.03-1.62-.13-1.95,0l-.97-1.95c.28.02,2.61-2.6,2.92,1.95Z"/>
    <rect class="cls-2" x="377.87" y="128.81" width="1.94" height="2.91"/>
    <path class="cls-2" d="M344.74,455.2c.04,2.31.66,3.38-1.95,2.92.83-2.63,1.29-1.95,1.95-2.92Z"/>
    <circle class="cls-2" cx="271.68" cy="367.49" r="1.2"/>
    <path class="cls-2" d="M345.71,454.23c-.09-1.86-.46-2.74.97-3.9.38,1.87-.03,2.47-.97,3.9Z"/>
    <path class="cls-2" d="M416.84,141.47c1.03.5,1.24.42.97,1.95-.56.16-1.74-.18-1.95,0l.97-1.95Z"/>
    <path class="cls-2" d="M252.18,171.67c.35-1.26.84-1.59.97-1.95l-.97,1.95Z"/>
    <path class="cls-2" d="M430.48,147.31c.5-1.43,1.79-2.5,1.95-2.92,0,1.43-.55,2.5-1.95,2.92Z"/>
    <path class="cls-2" d="M246.33,489.3c-1.62-13.03,4.81-39.56,6.7-54.2,3.26-25.18,4.89-55.36,9.94-79.7.37-1.77.91-3.29,2.38-4.45,1.19-.5,2.31,1.89,3.4,2.92-3.33,1.8-3.15,5.08-3.76,8.42-4.27,23.46-6.65,50.12-9.76,74.03-2.55,19.56-4.61,39.24-6.94,58.83-2.74-.8-1.7-3.84-1.95-5.85Z"/>
    <path class="cls-2" d="M167.41,278.85c.02.43,1.8,2.32.96,3.87-2.15-.51-6.01,1.97-7.3,1.97h-14.61c-3.54,0-11.6,1.52-16.08,1.95-.89-2.55,5.29-2.72,6.46-2.8,9.83-.68,22.55,1.23,30.57-4.99Z"/>
    <path class="cls-2" d="M192.74,204.8c-3.79-3.75-8.66-6.49-8.77-12.67,3.4,4.84,5.49,7.13,8.77,12.67Z"/>
    <path class="cls-2" d="M135.26,462.02c-.48,2.02-.77,3.96-2.92,4.87-.61-5.05,2.28-9.34,3.9-13.64l.88.46c-2.11,2.52-1.28,5.9-1.86,8.31Z"/>
    <path class="cls-2" d="M201.51,216.49c-2.55.36-2.47.21-3.48-1.85-1.14-2.33-2.07-4.67-3.34-6.92,4.28,1.6,5.1,6.32,6.82,8.77Z"/>
    <path class="cls-2" d="M161.56,235.98c-1.67-3.4-1.27-8.71-1.95-12.67,3.28,2.98,1.68,8.55,1.95,12.67Z"/>
    <path class="cls-2" d="M136.23,463c-.67,1.56-.95,4.96-1.95,6.82-1.6-.35-1.78-1.5-1.95-2.92,2.15-.91,2.44-2.85,2.92-4.87l.97.97Z"/>
    <path class="cls-2" d="M321.35,200.9c-1.94,1.16-2.18,2.22-5.85,3.9-.72,3.72-.96.95-3.15,1.98-.72.34-.78,1-2.7,1.92-.14.29.3,1.18-.16,1.76-.55.7-4.45,1.77-5.69,2.14,2.99-2.43,2.11-2.1,5.85-3.9.14-.29-.3-1.18.16-1.76.68-.86,4.46-1.57,5.69-2.14.52-2.71,1.5-1.24,1.95-3.9,1.3,0,2.6,0,3.9,0Z"/>
    <path class="cls-2" d="M286.28,224.29c-.35,3.33-1.09,1.37-1.95,1.95l1.95-7.79c-.06,1.91.19,3.99,0,5.85Z"/>
    <path class="cls-2" d="M152.79,181.42c-.35-2.25-.6-4.6-.97-6.82,1.95,1.31,3.03,5.22.97,6.82Z"/>
    <path class="cls-2" d="M372.99,165.83c-1.05,1.83-3.13,2.84-4.87,3.9.21-3.45,3.05-3.29,4.87-3.9Z"/>
    <path class="cls-2" d="M375.92,163.88c-.42.81-1.05,1.69-1.95,1.95-.43-3.05.69-1.51,1.95-1.95Z"/>
    <path class="cls-2" d="M287.25,224.29c.71-1.08,1.82-1.45,2.92-1.95-.42,1.4-1.49,1.94-2.92,1.95Z"/>
  </g>
  <g>
    <path class="cls-3" d="M400.68,222.04c8.08,8,3.2,13.72,2.69,21.17-.5,6.86-1.03,13.86-1.26,20.74-.17,8.27,3.46,31.23-3.19,36.37-7.76,5.86-32.85,7.59-42.22,2.81-21.83-11.22-10.64-39.8-12.81-57.59-.51-3.97-2.88-15.96-9-16.07-19.87-.24-18.23,40.53-17.62,51.69.55,7.85,7.22,17.82-7.39,17.45-22.49-.28-17.08-33.13-17.83-47.02-.52-9.51-3.8-25.76-2.79-34.09,1.49-12.13,26.33-6.92,36.61-7.29,11.07-.55,23.48-4.48,34.73-3.65,9.28.54,34.13,9.44,40.08,15.49Z"/>
    <path class="cls-3" d="M-40.12,265.82c6.84-6.07,21.54-11.5,27.17-4.05,10.45,13.86,6.54,24.44,33.07,12.53,25.28-11,45.81-26.6,76.73-28.45,14.94-.96,39.24,11.35,43.9,23.49,3.16,7.93-.22,13.15,1.07,19.47.87,4.34,4,7.29,4.66,11.18,2.05,13.47-19.97,32.1-31.59,36.59-4.16,1.54-8.26,1.22-12.45,2.75-10.36,3.79-21.68,10.4-31.31,13.63-8.95,2.98-20.61,3.48-29.56,7.16-11.17,4.5-22.94,18.67-33.6,5.3-13.02-29.21-36.04-57.53-49.29-86.12-1.7-3.72-3-9.79,1.22-13.5ZM34.99,289.56c-7.31,3.98-20.51,13.64-19.31,21.85.6,4.2,7.06,16.75,9.83,20.2,14.56,17.95,46.88-5.21,64.17-9.48,11.05-2.98,22.46,1.24,26.37-13.5,3.95-14.25-12.59-26.57-22.99-35.05-19.98.79-40.44,6.19-58.07,15.99Z"/>
    <path class="cls-3" d="M443.87,232.77c18.69-11,30.42-2.38,49.14,1.42,26.23,5.65,6.25-29.43,29.74-28.24,35.66,2.62,18.49,27.79,16.64,44.45-1.68,15.31,3.72,31.37-.02,46.3-1.79,7.26-13.02,30.31-20.05,33.39-9.34,4.05-21.43-3.11-30.09-5.1-22.16-5.19-43.94-2.75-57.65-23.52-12.7-19.1-8.7-56.08,12.28-68.7ZM474.19,295.87c3.78,4.79,8.94,6.82,11.95.9-.48-11.22,21.05-46.24-5.7-45.21-17.53.98-14.64,33.5-6.26,44.32Z"/>
    <path class="cls-3" d="M269.36,264.62c-5.36,6.1-31.53,5.6-40.7,7.94-4.09.82-27.24,8.95-21.27,14.37,21.75,5.26,41.26-19.53,60.31,1.17-9.74,18.61-32.66,24.13-52.68,25.08-36.89,1.69-67.02-42.46-49.43-75.07,14.53-26.41,67.59-27.77,89.47-7.63,6.61,5.67,20.44,27.12,14.3,34.14ZM209.73,246.52c-12.94,3.05-10.56,16.1,2.97,15.72,21.67-.24,21.51-21.04-2.97-15.72Z"/>
  </g>
  <g>
    <path class="cls-1" d="M246.37,346.82c1.88-1.71,4.58-2.57,8.11-2.57,1.6,0,3.09.19,4.47.58,4.69,1.21,7.73,4.28,9.11,9.19,1.05,3.7,1.79,6.71,2.24,9.02.44,2.71,1.02,4.97,1.74,6.79.72,1.82,1.43,2.73,2.15,2.73.83,0,1.61-1.01,2.36-3.02.75-2.01,1.61-5.48,2.61-10.39.17-.66.38-1.71.66-3.15.28-1.43.47-2.32.58-2.65.66-2.65,1.66-4.62,2.98-5.92,1.32-1.3,3.2-2.11,5.63-2.44,1.27-.17,2.43-.25,3.48-.25,3.7,0,6.35,1.08,7.95,3.23,1.16,1.6,1.89,3.41,2.19,5.42.3,2.02.54,6.72.7,14.12.22,8.94.33,14.1.33,15.48,0,2.54-.14,6-.41,10.39s-.52,7.02-.74,7.91c-.39,1.6-1.19,2.87-2.4,3.81-1.21.94-2.62,1.41-4.22,1.41-.72,0-1.41-.08-2.07-.25-1.6-.44-2.86-1.11-3.77-1.99-.91-.88-1.89-2.34-2.94-4.39-.83-1.77-1.46-2.65-1.9-2.65-.33,0-.99.94-1.99,2.82-.77,1.44-1.52,2.57-2.24,3.39-1.71,1.71-3.86,2.57-6.46,2.57-1.88,0-3.67-.44-5.38-1.32-2.04-1.05-3.97-3.37-5.79-6.95-.66-1.27-1.08-1.96-1.24-2.07l-.08-.08h-.17c-.28,0-.55.22-.83.66-.28.44-.54,1.02-.79,1.74-.25.72-.4,1.13-.46,1.24-.22.44-.33.83-.33,1.16s-.39,1.01-1.16,2.03c-.77,1.02-1.41,1.73-1.9,2.11-1.49,1.05-3.01,1.57-4.55,1.57-1.1,0-2.32-.4-3.64-1.2-1.33-.8-2.24-1.7-2.73-2.69-1.05-2.1-1.57-5.05-1.57-8.86,0-2.15.05-3.92.17-5.3.22-4.75.33-10.73.33-17.96,0-7.95-.11-12.91-.33-14.9-.11-.77-.17-1.35-.17-1.74,0-2.92.83-5.13,2.48-6.62Z"/>
    <path class="cls-1" d="M307.71,347.73c1.6-1.77,3.61-2.65,6.04-2.65,1.49,0,2.92.41,4.3,1.24,1.33.83,2.39,2.15,3.19,3.97.8,1.82,1.2,3.81,1.2,5.96,0,.17-.01.4-.04.7-.03.3-.04.54-.04.7-.33,3.64-.5,6.49-.5,8.53,0,.83.05,2.68.17,5.55.28,5.74.57,9.73.87,11.96.3,2.24.84,3.93,1.61,5.09,1.43,2.1,3.34,3.15,5.71,3.15,1.43,0,2.81-.43,4.14-1.28,1.33-.85,2.35-2.06,3.06-3.6l.66-1.49.08-15.48c0-10.38.11-16.03.33-16.97.5-2.21,1.56-4,3.19-5.38,1.63-1.38,3.52-2.07,5.67-2.07,3.37,0,5.66,1.44,6.87,4.3.38.83.58,2.13.58,3.89,0,1.49-.11,3.01-.33,4.55-.11,1.21-.17,2.04-.17,2.48,0,1.05.11,2.43.33,4.14.28,2.59.52,4.42.75,5.46.22,1.1.33,2.81.33,5.13,0,5.35-.36,9.35-1.08,12-.28.83-.41,1.44-.41,1.82,0,.55-.47,2.32-1.41,5.3-.72,2.43-1.99,4.42-3.81,5.96-1.77,1.55-4.83,3.05-9.19,4.51-4.36,1.46-7.98,2.19-10.84,2.19-3.75,0-7.45-.84-11.09-2.52s-6.4-3.82-8.28-6.42c-1.27-1.77-2.57-4.17-3.89-7.2-.72-1.82-1.08-5.6-1.08-11.34v-5.55c0-3.37-.11-5.99-.33-7.86-.22-1.66-.33-3.23-.33-4.72,0-3.75.28-6.59.83-8.53.66-2.43,1.63-4.28,2.9-5.55Z"/>
    <path class="cls-1" d="M366.82,345.83c2.76-1.27,5.49-1.9,8.2-1.9,1.71,0,4.14.17,7.28.5,3.86.44,6.61.92,8.24,1.45,1.63.53,3.32,1.42,5.09,2.69,3.86,2.87,6.24,5.99,7.12,9.36.28,1.1.41,1.9.41,2.4,0,.55-.11,1.16-.33,1.82-.61,1.93-2.21,3.53-4.8,4.8-1.77.88-2.76,1.49-2.98,1.82-.11.22-.17.39-.17.5,0,.55,1.1,1.74,3.31,3.56,4.64,3.86,7.31,8.28,8.03,13.25.11.77.17,1.35.17,1.74,0,2.1-.61,4.44-1.82,7.04-1.93,3.92-4.06,6.73-6.37,8.44-2.32,1.71-5.69,2.92-10.1,3.64-1.33.17-2.93.25-4.8.25-3.75,0-7.81-.25-12.17-.75-1.88-.11-3.95-.83-6.21-2.15-2.21-1.27-4.21-3.31-6-6.13-1.79-2.81-2.69-5.27-2.69-7.37,0-.77.23-1.67.7-2.69.47-1.02,1.01-1.81,1.61-2.36,1.1-.99,2.84-1.77,5.21-2.32,1.66-.38,2.48-.72,2.48-.99,0-.22-1.02-1.46-3.06-3.73-2.15-2.26-3.6-3.97-4.35-5.13-.74-1.16-1.45-2.76-2.11-4.8-.33-1.1-.5-2.35-.5-3.73,0-1.21.14-2.37.41-3.48,1.21-4.42,2.37-7.56,3.48-9.44,1.49-2.7,3.73-4.8,6.71-6.29ZM376.01,383.83c-1.93-.38-3.86-.58-5.79-.58-.77,0-1.21.06-1.33.17-.11.11-.17.22-.17.33,0,.33.5,1.1,1.49,2.32,2.7,3.37,5.85,5.05,9.44,5.05.17,0,.36-.01.58-.04.22-.03.41-.04.58-.04,2.76-.17,4.36-.94,4.8-2.32.17-.61,0-1.16-.5-1.66-.99-1.05-4.03-2.12-9.11-3.23ZM384.37,360.82c-1.21-.61-2.68-.91-4.39-.91-.44,0-.72.03-.83.08-.28.11-.72.22-1.32.33-.72.11-1.38.44-1.99.99-.61.55-.91,1.1-.91,1.66,0,.66.37,1.3,1.12,1.9.75.61,1.7,1.11,2.86,1.49,2.98.88,5.57,1.33,7.78,1.33,1.27,0,2.07-.19,2.4-.58.11-.11.17-.25.17-.41,0-.72-.54-1.75-1.61-3.1-1.08-1.35-2.17-2.28-3.27-2.77Z"/>
    <path class="cls-1" d="M412.27,344.59c.77-.22,1.6-.33,2.48-.33h.66c2.37.11,4.19.83,5.46,2.15,1.27,1.33,2.24,3.53,2.9,6.62.28,1.27.41,7.4.41,18.38,0,8.17-.11,15.51-.33,22.02-.17,3.31-.29,5.33-.37,6.04-.08.72-.32,1.44-.7,2.15-1.21,2.43-3.28,3.64-6.21,3.64h-.91c-4.53-.28-7.26-3.12-8.2-8.53-.39-2.54-.58-4.61-.58-6.21,0-1.82.17-5.02.5-9.6.17-2.81.25-8.5.25-17.05v-14.49l.66-1.24c.88-1.71,2.21-2.9,3.97-3.56Z"/>
    <path class="cls-1" d="M447.46,343.84c.77-.11,1.54-.17,2.32-.17,2.43,0,5.13.22,8.11.66,7.84,1.32,13.66,4.91,17.47,10.76,1.93,2.93,2.9,5.38,2.9,7.37,0,.77-.17,1.55-.5,2.32-1.11,2.65-3.37,3.97-6.79,3.97s-6.35-1.41-8.78-4.22c-1.99-2.26-3.52-3.75-4.59-4.47-1.08-.72-2.39-1.13-3.93-1.24h-.91c-1.93,0-3.49.47-4.68,1.41-1.19.94-2.47,2.65-3.85,5.13-1.21,2.26-1.95,3.82-2.19,4.68-.25.86-.37,2.33-.37,4.43,0,2.32.15,4.14.46,5.46.3,1.32.95,3.04,1.95,5.13.88,1.82,2.07,3.26,3.56,4.3,1.49,1.05,3.09,1.57,4.8,1.57,1.33,0,2.57-.3,3.73-.91,1.21-.72,2.79-1.96,4.72-3.72,2.1-1.93,3.64-3.15,4.64-3.64.99-.5,2.4-.75,4.22-.75,1.93,0,3.34.25,4.22.75,1.05.61,1.77,1.24,2.15,1.9.44.61.66,1.68.66,3.23s-.25,2.68-.75,3.56c-1.88,3.42-3.67,5.99-5.38,7.7-1.21,1.21-3.23,2.64-6.04,4.26-2.82,1.63-5.11,2.72-6.87,3.27-1.82.55-3.7.83-5.63.83-5.35,0-10.79-2.01-16.31-6.04-2.76-2.04-5.11-4.86-7.04-8.44-1.93-3.59-3.17-7.39-3.73-11.42-.11-.88-.17-1.74-.17-2.57,0-3.2.28-6.59.83-10.18.17-1.1.61-2.87,1.32-5.3.72-2.43,1.21-3.78,1.49-4.06.17-.17.25-.41.25-.74,0-.17.47-1.19,1.41-3.06,2.21-4.36,5.68-7.59,10.43-9.69,2.43-1.05,4.72-1.74,6.87-2.07Z"/>
  </g>
  <path class="cls-1" d="M504.25,375.27c.33-.04.61-.08.83-.12.22-.04.36-.07.43-.08.06,0,.16-.02.29-.04.13-.02.28-.03.44-.03h.83c.83,0,1.47.06,1.94.17.47.11,1.01.32,1.64.63,1.89.97,3.11,2.4,3.66,4.29.07.22.11.53.11.94,0,.83-.14,1.51-.41,2.06-.02.04-.05.11-.1.21s-.08.17-.1.21c-.44.86-.7,1.39-.78,1.58-.08.19-.12.42-.12.67,0,.33.04.51.11.55.05.04.08.11.08.22,0,.13.05.27.14.41.07.13.2.48.39,1.05.15.39.23.72.25.99.02.28.04,1.06.05,2.34l.03,2.59-.25.36c-.4.66-1.09.99-2.07.99h-.33c-.97-.07-1.73-.44-2.26-1.1-.53-.66-.9-1.71-1.1-3.14-.17-1.06-.41-1.75-.74-2.06-.4-.4-1.02-.61-1.84-.61-.72,0-1.23.16-1.54.47-.33.33-.55,1.29-.66,2.86-.09,1.23-.23,2.07-.41,2.52-.18.45-.54.82-1.07,1.11-.24.13-.6.19-1.07.19s-.85-.06-1.13-.19c-.9-.4-1.49-1.21-1.76-2.42-.18-.81-.28-1.73-.28-2.78,0-.31.02-.78.05-1.4.04-.62.05-1.04.05-1.24,0-.48-.03-1.12-.08-1.93-.04-.73-.05-1.23-.05-1.49,0-.57.04-1.34.11-2.31.07-.97.12-1.81.14-2.5.02-1.12.06-1.83.12-2.13s.22-.61.48-.92c.29-.31.68-.54,1.16-.69.22-.04.83-.06,1.82-.06,1.16,0,2.17-.05,3.03-.17ZM507.16,380.69c-.29-.07-.81-.11-1.54-.11-.61,0-1,.03-1.18.08-.42.09-.77.31-1.05.66-.13.15-.19.37-.19.66,0,.33.06.57.19.72.2.28.39.45.58.52.18.07.55.11,1.1.11,1.36,0,2.29-.28,2.78-.83.15-.15.22-.38.22-.71,0-.37-.09-.62-.28-.77-.18-.15-.4-.26-.63-.33Z"/>
  <path class="cls-1" d="M506.05,363.7c-4.5-.54-8.99.5-12.45,3.5-3.1,2.69-4.95,6.67-5.77,10.64-.46,2.22-.65,4.5-.56,6.77s.03,4.55.34,6.82c.52,3.79,1.86,7.57,4.56,10.37,2.84,2.95,6.83,4.26,10.85,4.41,4.42.16,9.19-.24,13.15-2.34,6.88-3.66,8.67-11.66,8.38-18.87-.09-2.29-.37-4.57-.75-6.83s-.68-4.64-2.06-6.54c-2.95-4.07-8.38-5.46-12.96-6.78-1.89-.55-2.7,2.4-.81,2.94,3.54,1.02,7.66,1.98,10.4,4.6,1.42,1.35,1.79,2.95,2.16,4.81.33,1.72.61,3.45.78,5.19.59,5.98.36,13.35-4.67,17.51-2.74,2.27-6.41,3.04-9.88,3.17-3.77.14-7.51.17-10.77-2.02-2.67-1.79-4.19-4.76-4.95-7.8-.44-1.76-.62-3.55-.66-5.36-.04-2.05-.16-4.13-.02-6.18.27-3.95,1.49-8.14,4.18-11.14,2.99-3.33,7.17-4.32,11.5-3.8,1.95.23,1.93-2.82,0-3.05h0Z"/>
</svg>